<svg xmlns="http://www.w3.org/2000/svg" viewBox="0 0 1440 320">
    <path fill="#ffd0d0" 
    fill-opacity="1" 
    d="M0,128L60,149.3C120,171,240,213,360,208C480,203,600,149,720,122.7C840,96,960,96,1080,128C1200,160,1320,224,1380,256L1440,288L1440,320L1380,320C1320,320,1200,320,1080,320C960,320,840,320,720,320C600,320,480,320,360,320C240,320,120,320,60,320L0,320Z"></path>
    <path 
    fill="#ffd0d0" 
    fill-opacity="1" 
    d="M0,128L60,149.3C120,171,240,213,360,208C480,203,600,149,720,122.7C840,96,960,96,1080,128C1200,160,1320,224,1380,256L1440,288L1440,320L1380,320C1320,320,1200,320,1080,320C960,320,840,320,720,320C600,320,480,320,360,320C240,320,120,320,60,320L0,320Z"></path>
</svg>